<svg xmlns="http://www.w3.org/2000/svg" viewBox="0 0 320 160" width="320" height="160">
  <rect width="320" height="160" fill="#FAFAFA"/>
  <rect x="16" y="14" width="64" height="8" rx="4" fill="#2E2E38" opacity=".65"/>
  <rect x="16" y="32" width="288" height="112" rx="4" fill="#FFFFFF" stroke="#E0E0E0"/>
  <g fill="#543FDE" opacity=".7">
    <circle cx="52" cy="118" r="5"/><circle cx="76" cy="104" r="4"/><circle cx="98" cy="112" r="6"/>
    <circle cx="122" cy="92" r="5"/><circle cx="146" cy="98" r="4"/><circle cx="168" cy="78" r="7"/>
    <circle cx="192" cy="86" r="4"/><circle cx="214" cy="66" r="5"/><circle cx="238" cy="72" r="6"/>
    <circle cx="262" cy="54" r="4"/>
  </g>
  <g fill="#28A464" opacity=".55">
    <circle cx="66" cy="86" r="4"/><circle cx="110" cy="70" r="5"/><circle cx="158" cy="118" r="4"/>
    <circle cx="204" cy="108" r="5"/><circle cx="250" cy="96" r="4"/>
  </g>
  <line x1="34" y1="130" x2="288" y2="48" stroke="#8F8FA3" stroke-width="1.5" stroke-dasharray="4 4"/>
</svg>
